<?xml version="1.0" standalone="no"?>
<!DOCTYPE svg PUBLIC "-//W3C//DTD SVG 20010904//EN"
 "http://www.w3.org/TR/2001/REC-SVG-20010904/DTD/svg10.dtd">
<svg version="1.0" xmlns="http://www.w3.org/2000/svg"
 width="300.000000pt" height="168.000000pt" viewBox="0 0 300.000000 168.000000"
 preserveAspectRatio="xMidYMid meet">
<metadata>
Created by potrace 1.16, written by Peter Selinger 2001-2019
</metadata>
<g transform="translate(0.000000,168.000000) scale(0.100000,-0.100000)"
fill="#000000" stroke="none">
<path d="M0 840 l0 -840 1500 0 1500 0 0 840 0 840 -1186 -2 -1187 -3 -17 -33
c-17 -31 -19 -32 -30 -15 -11 17 -11 17 -5 -1 10 -33 -35 -48 -69 -23 -17 13
-13 52 5 41 15 -9 10 3 -7 21 -14 13 -19 14 -25 3 -7 -10 -9 -10 -9 0 0 6 -4
12 -10 12 -6 0 -6 -9 0 -26 13 -32 13 -44 0 -44 -5 0 -10 9 -10 21 0 23 -22
49 -41 49 -7 0 -3 -10 9 -23 27 -28 28 -37 5 -38 -14 0 -13 -2 5 -9 12 -5 22
-15 22 -21 0 -7 8 -21 18 -32 10 -13 11 -17 3 -12 -11 6 -13 4 -8 -8 5 -12 -1
-17 -26 -21 -49 -7 -77 -3 -77 11 0 16 -16 17 -26 2 -5 -8 -8 -8 -14 0 -9 16
-39 3 -36 -16 3 -18 46 -29 46 -12 0 15 136 -6 147 -24 4 -7 -2 -7 -18 -2 -13
4 -40 9 -60 10 -20 1 -42 6 -49 10 -8 5 -11 4 -6 -3 9 -15 -3 -20 -61 -26 -43
-3 -51 -2 -46 10 4 11 -1 14 -21 10 -28 -5 -31 0 -16 24 8 12 13 13 30 2 15
-9 19 -9 18 0 -2 7 3 12 10 13 6 0 12 3 12 8 0 4 0 16 0 27 0 14 -7 20 -22 20
-21 1 -21 2 -5 11 9 6 15 15 12 20 -4 5 -11 6 -17 3 -6 -4 -6 2 1 15 8 14 8
21 1 21 -5 0 -10 6 -10 13 0 9 -13 14 -37 14 -21 0 -32 -2 -25 -4 6 -3 12 -12
12 -20 0 -10 6 -14 20 -10 23 6 28 -21 8 -41 -19 -19 -30 -14 -18 8 7 14 7 20
0 20 -5 0 -11 -8 -12 -17 0 -10 -2 -25 -2 -33 -1 -8 -7 -14 -13 -13 -7 2 -17
-14 -24 -34 -10 -31 -9 -38 5 -48 16 -13 23 -31 7 -21 -5 3 -11 -3 -14 -14 -3
-11 -1 -18 4 -14 5 3 9 1 9 -5 0 -6 7 -8 15 -5 8 4 15 1 15 -5 0 -6 -4 -11
-10 -11 -5 0 -10 -8 -10 -17 1 -17 1 -17 11 0 13 23 26 22 34 -4 4 -12 10 -17
14 -12 3 5 14 1 24 -9 9 -10 12 -18 6 -18 -7 0 -9 -9 -6 -21 4 -16 3 -18 -8
-9 -11 9 -12 7 -8 -9 3 -12 8 -19 12 -16 4 2 7 -14 7 -35 -1 -22 -4 -40 -8
-40 -4 0 -2 -13 3 -30 10 -26 13 -28 32 -19 21 10 21 9 3 -5 -10 -9 -24 -13
-29 -9 -6 4 -8 0 -4 -10 4 -11 1 -17 -8 -17 -8 0 -19 -8 -24 -17 -6 -11 -11
-13 -11 -5 0 10 -3 10 -14 0 -8 -7 -13 -15 -11 -18 2 -3 -3 -11 -11 -18 -12
-11 -14 -10 -15 5 0 11 -3 13 -6 6 -9 -24 -23 -13 -23 17 0 17 -4 30 -10 30
-5 0 -7 -8 -3 -17 5 -15 4 -16 -8 -5 -9 8 -13 30 -12 58 1 24 -2 42 -7 39 -13
-8 -33 53 -26 85 3 17 2 30 -3 30 -5 0 -11 10 -13 23 -5 24 18 55 30 42 4 -4
1 -10 -5 -12 -7 -3 -13 -10 -13 -16 0 -6 7 -4 17 5 14 15 14 19 2 34 -8 10 -9
15 -3 11 7 -4 17 -1 23 7 9 10 8 15 -4 20 -9 3 -13 2 -10 -4 3 -6 -1 -7 -9 -4
-11 4 -16 0 -16 -11 0 -9 -4 -13 -10 -10 -5 3 -10 -1 -10 -9 0 -8 -5 -18 -11
-22 -8 -4 -9 1 -4 17 4 13 12 26 16 27 5 2 9 10 9 18 0 9 -3 13 -8 11 -4 -3
-8 6 -9 20 -1 19 1 22 8 12 6 -10 9 -8 9 10 0 16 -4 22 -15 17 -8 -3 -15 -1
-15 4 0 6 7 10 15 10 7 0 19 8 24 18 8 12 9 2 5 -40 -7 -61 -1 -69 32 -42 18
14 18 15 -3 4 -21 -10 -23 -8 -23 21 0 28 2 30 17 18 14 -12 16 -12 8 0 -6 11
-4 13 9 8 14 -5 15 -3 6 13 -7 12 -7 21 0 25 11 7 -12 35 -29 35 -15 0 -14 17
1 26 7 5 9 2 4 -7 -4 -8 3 -2 16 14 13 15 27 24 31 21 4 -4 3 -12 -3 -18 -5
-7 -5 -17 2 -26 8 -12 9 -12 4 2 -3 10 -1 20 5 23 5 4 7 11 4 16 -4 5 -1 9 4
9 6 0 11 5 11 11 0 8 -4 8 -14 0 -10 -8 -16 -9 -21 -1 -3 5 4 14 17 19 17 7 4
10 -54 10 l-78 1 0 -840z m680 524 c0 -8 4 -13 9 -9 6 3 13 -10 17 -30 3 -19
10 -35 14 -35 12 0 1 -113 -12 -121 -7 -4 -14 -29 -15 -55 -2 -26 -8 -53 -13
-59 -5 -7 -8 -14 -5 -16 2 -3 -5 -6 -16 -6 -12 -1 -26 -9 -33 -18 -8 -12 -20
-14 -41 -10 -17 3 -35 7 -42 9 -7 1 -16 5 -19 9 -4 4 -14 7 -23 7 -9 0 -27 9
-40 19 l-25 19 32 32 c18 17 36 29 41 26 5 -3 11 1 14 8 7 17 -18 15 -52 -4
-18 -9 -21 -8 -21 10 0 12 4 18 10 15 6 -3 7 1 4 10 -4 9 2 25 12 36 15 16 16
22 5 29 -10 6 -8 12 12 25 14 9 32 13 38 9 8 -5 9 -3 4 6 -6 10 -4 12 8 7 9
-3 16 -3 14 2 -1 4 13 22 31 41 27 27 36 30 43 19 7 -11 9 -11 9 4 0 10 7 20
15 23 8 4 12 11 8 17 -3 6 -1 7 5 3 7 -4 12 -14 12 -22z"/>
</g>
</svg>
