<?xml version="1.0" standalone="no"?>
<!DOCTYPE svg PUBLIC "-//W3C//DTD SVG 20010904//EN"
 "http://www.w3.org/TR/2001/REC-SVG-20010904/DTD/svg10.dtd">
<svg version="1.0" xmlns="http://www.w3.org/2000/svg"
 width="348.000000pt" height="145.000000pt" viewBox="0 0 348.000000 145.000000"
 preserveAspectRatio="xMidYMid meet">
<metadata>
Created by potrace 1.16, written by Peter Selinger 2001-2019
</metadata>
<g transform="translate(0.000000,145.000000) scale(0.100000,-0.100000)"
fill="#000000" stroke="none">
<path d="M0 725 l0 -725 633 0 c347 0 638 4 646 9 11 7 10 10 -3 18 -14 7 -15
15 -7 35 13 34 28 43 46 28 8 -7 15 -9 15 -4 0 5 8 0 17 -11 15 -20 15 -20 10
2 -3 13 -1 26 4 29 5 3 9 2 9 -3 0 -4 14 -8 30 -8 19 -1 30 4 30 13 0 9 7 13
20 9 11 -3 20 -1 20 4 0 5 -8 9 -17 9 -15 0 -14 2 3 15 15 11 16 14 4 15 -17
0 -25 40 -9 40 6 0 7 -5 4 -10 -3 -6 -1 -10 4 -10 11 0 16 26 12 67 -1 13 3
23 8 23 7 0 7 9 0 27 -10 26 4 49 22 37 4 -2 4 9 -1 26 -5 19 -5 30 1 30 6 0
6 6 0 18 -6 11 -6 24 0 33 12 19 11 66 -1 74 -7 4 -8 11 -1 18 5 7 9 23 9 37
1 53 13 266 18 295 2 17 6 57 9 90 3 33 7 79 10 103 3 29 1 42 -8 42 -9 0 -9
2 -1 8 7 4 13 39 15 77 2 39 9 73 14 77 6 5 6 8 -1 8 -13 0 -10 43 6 85 6 15
9 30 6 32 -2 3 0 18 4 34 l9 29 -795 0 -794 0 0 -725z"/>
<path d="M1638 1428 c-6 -36 3 -119 13 -112 5 3 9 0 9 -5 0 -6 -4 -11 -10 -11
-5 0 -10 -12 -10 -26 0 -14 4 -23 8 -20 5 3 9 -1 9 -9 0 -8 -4 -12 -8 -9 -9 5
-14 -147 -17 -571 -1 -171 -7 -382 -12 -470 -5 -88 -10 -168 -10 -177 0 -17
51 -18 935 -18 l935 0 0 725 0 725 -880 0 c-690 -1 -879 -3 -874 -13 5 -9 3
-9 -7 1 -7 6 -27 12 -45 12 -25 0 -33 -5 -36 -22z m295 -157 c-7 -12 -8 -22
-1 -32 8 -12 10 -12 15 0 4 10 7 10 13 1 5 -8 11 -7 24 5 14 14 16 14 16 1 0
-8 -5 -18 -11 -21 -6 -4 -8 -13 -5 -20 2 -7 -3 -12 -12 -11 -9 0 -17 -6 -18
-14 -2 -30 -4 -32 -21 -19 -11 10 -14 10 -9 2 6 -12 0 -15 -20 -12 -4 0 -10
-3 -13 -8 -3 -5 -17 -17 -30 -26 -22 -15 -25 -15 -36 -1 -10 14 -15 13 -43
-11 -24 -20 -31 -33 -27 -49 5 -18 4 -17 -9 4 -14 25 -12 45 4 35 4 -3 10 1
13 9 4 10 0 12 -15 8 -18 -4 -19 -2 -9 16 9 17 8 23 -6 31 -19 10 -15 21 9 25
38 5 39 19 1 42 -24 15 -32 23 -20 24 9 0 17 -4 17 -9 0 -9 27 -22 58 -27 7
-1 12 8 12 22 0 13 3 23 8 22 4 0 14 2 22 5 8 3 24 7 35 10 11 2 19 9 18 15
-2 7 2 12 7 12 6 0 10 -5 10 -11 0 -5 5 -7 10 -4 6 4 7 12 4 18 -5 8 -2 7 7
-1 10 -10 11 -17 2 -31z m-198 -291 c19 -8 19 -8 -5 -18 -15 -7 -19 -11 -9
-11 11 -1 15 -9 13 -27 -1 -15 3 -28 12 -31 8 -3 14 -19 14 -39 0 -19 4 -34
10 -34 5 0 7 7 4 15 -5 11 -2 13 10 9 9 -3 16 -11 16 -18 0 -6 4 -5 9 3 7 12
16 8 42 -18 24 -25 34 -29 40 -19 7 10 9 8 9 -5 0 -10 4 -16 9 -13 5 3 11 -3
14 -14 6 -24 -1 -25 -25 -3 -17 15 -18 15 -18 -11 0 -15 5 -37 11 -48 8 -14 8
-23 0 -31 -7 -7 -21 0 -46 26 -41 42 -55 46 -55 17 0 -20 -9 -24 -42 -21 -10
1 -18 -3 -18 -8 0 -6 -6 -11 -13 -11 -8 0 -19 19 -26 43 -7 23 -17 52 -22 64
-6 17 -4 27 12 42 13 12 17 21 10 26 -6 3 -8 12 -4 18 8 12 11 33 15 95 1 34
2 35 33 22z m316 -157 c8 -9 9 -14 3 -10 -11 6 -29 -19 -26 -35 1 -3 -5 -9
-14 -12 -12 -4 -12 -2 -4 14 6 11 8 20 5 20 -3 0 -17 -24 -30 -52 -13 -29 -24
-44 -24 -34 -1 11 -4 16 -8 13 -3 -4 -1 -17 5 -30 6 -12 13 -31 16 -42 3 -12
4 -8 4 10 -1 43 12 86 26 83 6 -2 26 13 44 32 26 29 33 32 41 20 6 -8 6 -17 2
-20 -13 -8 -21 -51 -8 -43 6 4 8 1 5 -8 -15 -41 -19 -61 -11 -56 5 4 10 0 10
-8 0 -8 -3 -13 -6 -12 -3 1 -8 -2 -10 -8 -2 -5 -12 -16 -23 -23 -27 -20 -83 8
-93 45 -4 16 -10 22 -12 15 -3 -6 -9 -10 -14 -7 -5 4 -6 -1 -3 -10 4 -11 2
-14 -9 -9 -13 5 -13 11 3 47 14 30 25 41 37 39 14 -3 15 -1 5 11 -7 8 -9 22
-6 32 5 13 9 14 15 3 7 -11 11 -10 18 2 5 8 7 18 4 24 -3 5 -1 6 4 3 6 -4 16
0 23 8 15 19 15 19 31 -2z m-307 -244 c-4 -8 -1 -8 12 -1 23 11 47 5 37 -11
-4 -7 1 -5 11 3 16 13 20 12 33 -5 15 -19 15 -19 8 3 -7 23 -6 23 14 5 12 -9
22 -27 22 -38 1 -17 2 -17 6 -2 7 27 21 20 15 -8 -2 -14 -8 -22 -12 -20 -5 3
-12 0 -16 -6 -4 -8 -3 -9 4 -5 17 10 15 -6 -4 -33 -12 -16 -23 -22 -40 -18
-14 2 -27 0 -30 -4 -8 -14 -24 -10 -24 6 0 8 -5 15 -11 15 -5 0 -7 -4 -4 -10
3 -5 0 -10 -8 -10 -16 0 -38 65 -32 95 2 11 4 28 4 38 1 9 6 17 12 17 5 0 7
-5 3 -11z"/>
</g>
</svg>
